<?xml version="1.0" encoding="UTF-8" standalone="no"?>
<!DOCTYPE svg PUBLIC "-//W3C//DTD SVG 1.1//EN"
 "http://www.w3.org/Graphics/SVG/1.1/DTD/svg11.dtd">
<!-- Generated by graphviz version 2.40.1 (20161225.0304)
 -->
<!-- Title: dependencies Pages: 1 -->
<svg width="2513pt" height="366pt"
 viewBox="0.00 0.00 2513.00 366.00" xmlns="http://www.w3.org/2000/svg" xmlns:xlink="http://www.w3.org/1999/xlink">
<g id="graph0" class="graph" transform="scale(1 1) rotate(0) translate(4 362)">
<title>dependencies</title>
<polygon fill="#ffffff" stroke="transparent" points="-4,4 -4,-362 2509,-362 2509,4 -4,4"/>
<text text-anchor="start" x="1231.5091" y="-42.4" font-family="sans-serif" font-weight="bold" font-size="14.00" fill="#000000">Legend</text>
<polygon fill="#ffffb3" stroke="transparent" points="1018.5,-10 1018.5,-30 1038.5,-30 1038.5,-10 1018.5,-10"/>
<text text-anchor="start" x="1042.129" y="-15.4" font-family="sans-serif" font-size="14.00" fill="#000000"> &#160;Declarations</text>
<polygon fill="#8dd3c7" stroke="transparent" points="1131.5,-10 1131.5,-30 1151.5,-30 1151.5,-10 1131.5,-10"/>
<text text-anchor="start" x="1155.2251" y="-15.4" font-family="sans-serif" font-size="14.00" fill="#000000"> &#160;Module</text>
<polygon fill="#80b1d3" stroke="transparent" points="1217.5,-10 1217.5,-30 1237.5,-30 1237.5,-10 1217.5,-10"/>
<text text-anchor="start" x="1241.2812" y="-15.4" font-family="sans-serif" font-size="14.00" fill="#000000"> &#160;Bootstrap</text>
<polygon fill="#fdb462" stroke="transparent" points="1314.5,-10 1314.5,-30 1334.5,-30 1334.5,-10 1314.5,-10"/>
<text text-anchor="start" x="1338.1732" y="-15.4" font-family="sans-serif" font-size="14.00" fill="#000000"> &#160;Providers</text>
<polygon fill="#fb8072" stroke="transparent" points="1410.5,-10 1410.5,-30 1430.5,-30 1430.5,-10 1410.5,-10"/>
<text text-anchor="start" x="1434.2258" y="-15.4" font-family="sans-serif" font-size="14.00" fill="#000000"> &#160;Exports</text>
<g id="clust1" class="cluster">
<title>cluster_AppModule</title>
<polygon fill="none" stroke="#000000" stroke-dasharray="1,5" points="693,-146 693,-350 2091,-350 2091,-146 693,-146"/>
</g>
<g id="clust2" class="cluster">
<title>cluster_AppModule_declarations</title>
<polygon fill="none" stroke="#000000" points="701,-154 701,-206 1234,-206 1234,-154 701,-154"/>
</g>
<g id="clust7" class="cluster">
<title>cluster_AppModule_imports</title>
<polygon fill="none" stroke="#000000" points="1242,-154 1242,-206 2083,-206 2083,-154 1242,-154"/>
</g>
<g id="clust9" class="cluster">
<title>cluster_AppModule_bootstrap</title>
<polygon fill="none" stroke="#000000" points="1296,-290 1296,-342 1420,-342 1420,-290 1296,-290"/>
</g>
<g id="clust11" class="cluster">
<title>cluster_AppRoutingModule</title>
<polygon fill="none" stroke="#000000" stroke-dasharray="1,5" points="2099,-214 2099,-282 2435,-282 2435,-214 2099,-214"/>
</g>
<g id="clust13" class="cluster">
<title>cluster_AppRoutingModule_imports</title>
<polygon fill="none" stroke="#000000" points="2233,-222 2233,-274 2427,-274 2427,-222 2233,-222"/>
</g>
<g id="clust14" class="cluster">
<title>cluster_AppRoutingModule_exports</title>
<polygon fill="none" stroke="#000000" points="2107,-222 2107,-274 2225,-274 2225,-222 2107,-222"/>
</g>
<g id="clust17" class="cluster">
<title>cluster_ParserModule</title>
<polygon fill="none" stroke="#000000" stroke-dasharray="1,5" points="8,-70 8,-138 2497,-138 2497,-70 8,-70"/>
</g>
<g id="clust18" class="cluster">
<title>cluster_ParserModule_declarations</title>
<polygon fill="none" stroke="#000000" points="1657,-78 1657,-130 2489,-130 2489,-78 1657,-78"/>
</g>
<g id="clust24" class="cluster">
<title>cluster_ParserModule_imports</title>
<polygon fill="none" stroke="#000000" points="1202,-78 1202,-130 1649,-130 1649,-78 1202,-78"/>
</g>
<g id="clust25" class="cluster">
<title>cluster_ParserModule_exports</title>
<polygon fill="none" stroke="#000000" points="16,-78 16,-130 1194,-130 1194,-78 16,-78"/>
</g>
<!-- AppComponent -->
<g id="node1" class="node">
<title>AppComponent</title>
<polygon fill="#ffffb3" stroke="#000000" points="1225.9399,-198 1120.0601,-198 1120.0601,-162 1225.9399,-162 1225.9399,-198"/>
<text text-anchor="middle" x="1173" y="-175.8" font-family="Times,serif" font-size="14.00" fill="#000000">AppComponent</text>
</g>
<!-- AppModule -->
<g id="node5" class="node">
<title>AppModule</title>
<polygon fill="#8dd3c7" stroke="#000000" points="1399.6571,-266 1396.6571,-270 1375.6571,-270 1372.6571,-266 1316.3429,-266 1316.3429,-230 1399.6571,-230 1399.6571,-266"/>
<text text-anchor="middle" x="1358" y="-243.8" font-family="Times,serif" font-size="14.00" fill="#000000">AppModule</text>
</g>
<!-- AppComponent&#45;&gt;AppModule -->
<g id="edge1" class="edge">
<title>AppComponent&#45;&gt;AppModule</title>
<path fill="none" stroke="#000000" d="M1173,-198.0336C1173,-215.0597 1173,-238 1173,-238 1173,-238 1306.0206,-238 1306.0206,-238"/>
<polygon fill="#000000" stroke="#000000" points="1306.0207,-241.5001 1316.0206,-238 1306.0206,-234.5001 1306.0207,-241.5001"/>
</g>
<!-- FooterComponent -->
<g id="node2" class="node">
<title>FooterComponent</title>
<polygon fill="#ffffb3" stroke="#000000" points="1101.8809,-198 984.1191,-198 984.1191,-162 1101.8809,-162 1101.8809,-198"/>
<text text-anchor="middle" x="1043" y="-175.8" font-family="Times,serif" font-size="14.00" fill="#000000">FooterComponent</text>
</g>
<!-- FooterComponent&#45;&gt;AppModule -->
<g id="edge2" class="edge">
<title>FooterComponent&#45;&gt;AppModule</title>
<path fill="none" stroke="#000000" d="M1043,-198.1061C1043,-217.3391 1043,-245 1043,-245 1043,-245 1306.1704,-245 1306.1704,-245"/>
<polygon fill="#000000" stroke="#000000" points="1306.1705,-248.5001 1316.1704,-245 1306.1704,-241.5001 1306.1705,-248.5001"/>
</g>
<!-- HeaderComponent -->
<g id="node3" class="node">
<title>HeaderComponent</title>
<polygon fill="#ffffb3" stroke="#000000" points="965.7437,-198 844.2563,-198 844.2563,-162 965.7437,-162 965.7437,-198"/>
<text text-anchor="middle" x="905" y="-175.8" font-family="Times,serif" font-size="14.00" fill="#000000">HeaderComponent</text>
</g>
<!-- HeaderComponent&#45;&gt;AppModule -->
<g id="edge3" class="edge">
<title>HeaderComponent&#45;&gt;AppModule</title>
<path fill="none" stroke="#000000" d="M905,-198.1686C905,-219.498 905,-252 905,-252 905,-252 1306.1948,-252 1306.1948,-252"/>
<polygon fill="#000000" stroke="#000000" points="1306.1949,-255.5001 1316.1948,-252 1306.1948,-248.5001 1306.1949,-255.5001"/>
</g>
<!-- SignalComponent -->
<g id="node4" class="node">
<title>SignalComponent</title>
<polygon fill="#ffffb3" stroke="#000000" points="826.6109,-198 709.3891,-198 709.3891,-162 826.6109,-162 826.6109,-198"/>
<text text-anchor="middle" x="768" y="-175.8" font-family="Times,serif" font-size="14.00" fill="#000000">SignalComponent</text>
</g>
<!-- SignalComponent&#45;&gt;AppModule -->
<g id="edge4" class="edge">
<title>SignalComponent&#45;&gt;AppModule</title>
<path fill="none" stroke="#000000" d="M768,-198.3228C768,-221.6602 768,-259 768,-259 768,-259 1306.0416,-259 1306.0416,-259"/>
<polygon fill="#000000" stroke="#000000" points="1306.0417,-262.5001 1316.0416,-259 1306.0416,-255.5001 1306.0417,-262.5001"/>
</g>
<!-- AppComponent  -->
<g id="node12" class="node">
<title>AppComponent </title>
<polygon fill="#80b1d3" stroke="#000000" points="1412.439,-334 1303.561,-334 1303.561,-298 1412.439,-298 1412.439,-334"/>
<text text-anchor="middle" x="1358" y="-311.8" font-family="Times,serif" font-size="14.00" fill="#000000">AppComponent </text>
</g>
<!-- AppModule&#45;&gt;AppComponent  -->
<g id="edge11" class="edge">
<title>AppModule&#45;&gt;AppComponent </title>
<path fill="none" stroke="#000000" stroke-dasharray="1,5" d="M1358,-266.2228C1358,-266.2228 1358,-287.7269 1358,-287.7269"/>
<polygon fill="#000000" stroke="#000000" points="1354.5001,-287.7269 1358,-297.7269 1361.5001,-287.727 1354.5001,-287.7269"/>
</g>
<!-- AppRoutingModule -->
<g id="node6" class="node">
<title>AppRoutingModule</title>
<polygon fill="#8dd3c7" stroke="#000000" points="2075.2744,-198 2072.2744,-202 2051.2744,-202 2048.2744,-198 1946.7256,-198 1946.7256,-162 2075.2744,-162 2075.2744,-198"/>
<text text-anchor="middle" x="2011" y="-175.8" font-family="Times,serif" font-size="14.00" fill="#000000">AppRoutingModule</text>
</g>
<!-- AppRoutingModule&#45;&gt;AppModule -->
<g id="edge5" class="edge">
<title>AppRoutingModule&#45;&gt;AppModule</title>
<path fill="none" stroke="#000000" d="M2011,-198.3228C2011,-221.6602 2011,-259 2011,-259 2011,-259 1409.8414,-259 1409.8414,-259"/>
<polygon fill="#000000" stroke="#000000" points="1409.8415,-255.5001 1399.8414,-259 1409.8414,-262.5001 1409.8415,-255.5001"/>
</g>
<!-- RouterModule  -->
<g id="node14" class="node">
<title>RouterModule </title>
<polygon fill="#fb8072" stroke="#000000" points="2216.6523,-266 2115.3477,-266 2115.3477,-230 2216.6523,-230 2216.6523,-266"/>
<text text-anchor="middle" x="2166" y="-243.8" font-family="Times,serif" font-size="14.00" fill="#000000">RouterModule </text>
</g>
<!-- AppRoutingModule&#45;&gt;RouterModule  -->
<g id="edge13" class="edge">
<title>AppRoutingModule&#45;&gt;RouterModule </title>
<path fill="none" stroke="#000000" stroke-dasharray="5,2" d="M2075.3054,-186C2103.0358,-186 2129.2313,-186 2129.2313,-186 2129.2313,-186 2129.2313,-219.7333 2129.2313,-219.7333"/>
<polygon fill="#000000" stroke="#000000" points="2125.7313,-219.7333 2129.2313,-229.7333 2132.7313,-219.7333 2125.7313,-219.7333"/>
</g>
<!-- BrowserAnimationsModule -->
<g id="node7" class="node">
<title>BrowserAnimationsModule</title>
<polygon fill="#8dd3c7" stroke="#000000" points="1928.3019,-198 1925.3019,-202 1904.3019,-202 1901.3019,-198 1755.6981,-198 1755.6981,-162 1928.3019,-162 1928.3019,-198"/>
<text text-anchor="middle" x="1842" y="-175.8" font-family="Times,serif" font-size="14.00" fill="#000000">BrowserAnimationsModule</text>
</g>
<!-- BrowserAnimationsModule&#45;&gt;AppModule -->
<g id="edge6" class="edge">
<title>BrowserAnimationsModule&#45;&gt;AppModule</title>
<path fill="none" stroke="#000000" d="M1842,-198.1686C1842,-219.498 1842,-252 1842,-252 1842,-252 1409.6845,-252 1409.6845,-252"/>
<polygon fill="#000000" stroke="#000000" points="1409.6845,-248.5001 1399.6845,-252 1409.6844,-255.5001 1409.6845,-248.5001"/>
</g>
<!-- BrowserModule -->
<g id="node8" class="node">
<title>BrowserModule</title>
<polygon fill="#8dd3c7" stroke="#000000" points="1737.4734,-198 1734.4734,-202 1713.4734,-202 1710.4734,-198 1630.5266,-198 1630.5266,-162 1737.4734,-162 1737.4734,-198"/>
<text text-anchor="middle" x="1684" y="-175.8" font-family="Times,serif" font-size="14.00" fill="#000000">BrowserModule</text>
</g>
<!-- BrowserModule&#45;&gt;AppModule -->
<g id="edge7" class="edge">
<title>BrowserModule&#45;&gt;AppModule</title>
<path fill="none" stroke="#000000" d="M1684,-198.1061C1684,-217.3391 1684,-245 1684,-245 1684,-245 1409.9514,-245 1409.9514,-245"/>
<polygon fill="#000000" stroke="#000000" points="1409.9514,-241.5001 1399.9514,-245 1409.9514,-248.5001 1409.9514,-241.5001"/>
</g>
<!-- HttpClientModule -->
<g id="node9" class="node">
<title>HttpClientModule</title>
<polygon fill="#8dd3c7" stroke="#000000" points="1612.1611,-198 1609.1611,-202 1588.1611,-202 1585.1611,-198 1493.8389,-198 1493.8389,-162 1612.1611,-162 1612.1611,-198"/>
<text text-anchor="middle" x="1553" y="-175.8" font-family="Times,serif" font-size="14.00" fill="#000000">HttpClientModule</text>
</g>
<!-- HttpClientModule&#45;&gt;AppModule -->
<g id="edge8" class="edge">
<title>HttpClientModule&#45;&gt;AppModule</title>
<path fill="none" stroke="#000000" d="M1553,-198.0336C1553,-215.0597 1553,-238 1553,-238 1553,-238 1409.8324,-238 1409.8324,-238"/>
<polygon fill="#000000" stroke="#000000" points="1409.8324,-234.5001 1399.8324,-238 1409.8324,-241.5001 1409.8324,-234.5001"/>
</g>
<!-- MatTableModule -->
<g id="node10" class="node">
<title>MatTableModule</title>
<polygon fill="#8dd3c7" stroke="#000000" points="1475.972,-198 1472.972,-202 1451.972,-202 1448.972,-198 1362.028,-198 1362.028,-162 1475.972,-162 1475.972,-198"/>
<text text-anchor="middle" x="1419" y="-175.8" font-family="Times,serif" font-size="14.00" fill="#000000">MatTableModule</text>
</g>
<!-- MatTableModule&#45;&gt;AppModule -->
<g id="edge9" class="edge">
<title>MatTableModule&#45;&gt;AppModule</title>
<path fill="none" stroke="#000000" d="M1380.9211,-198.2228C1380.9211,-198.2228 1380.9211,-219.7269 1380.9211,-219.7269"/>
<polygon fill="#000000" stroke="#000000" points="1377.4212,-219.7269 1380.9211,-229.7269 1384.4212,-219.727 1377.4212,-219.7269"/>
</g>
<!-- ParserModule -->
<g id="node11" class="node">
<title>ParserModule</title>
<polygon fill="#8dd3c7" stroke="#000000" points="1344.0286,-198 1341.0286,-202 1320.0286,-202 1317.0286,-198 1249.9714,-198 1249.9714,-162 1344.0286,-162 1344.0286,-198"/>
<text text-anchor="middle" x="1297" y="-175.8" font-family="Times,serif" font-size="14.00" fill="#000000">ParserModule</text>
</g>
<!-- ParserModule&#45;&gt;AppModule -->
<g id="edge10" class="edge">
<title>ParserModule&#45;&gt;AppModule</title>
<path fill="none" stroke="#000000" d="M1330.2178,-198.2228C1330.2178,-198.2228 1330.2178,-219.7269 1330.2178,-219.7269"/>
<polygon fill="#000000" stroke="#000000" points="1326.7178,-219.7269 1330.2178,-229.7269 1333.7178,-219.727 1326.7178,-219.7269"/>
</g>
<!-- MatTabsModule  -->
<g id="node23" class="node">
<title>MatTabsModule </title>
<polygon fill="#fb8072" stroke="#000000" points="1186.3116,-122 1073.6884,-122 1073.6884,-86 1186.3116,-86 1186.3116,-122"/>
<text text-anchor="middle" x="1130" y="-99.8" font-family="Times,serif" font-size="14.00" fill="#000000">MatTabsModule </text>
</g>
<!-- ParserModule&#45;&gt;MatTabsModule  -->
<g id="edge22" class="edge">
<title>ParserModule&#45;&gt;MatTabsModule </title>
<path fill="none" stroke="#000000" stroke-dasharray="5,2" d="M1291.092,-161.9909C1291.092,-145.9506 1291.092,-125 1291.092,-125 1291.092,-125 1153.3431,-125 1153.3431,-125 1153.3431,-125 1153.3431,-124.708 1153.3431,-124.708"/>
<polygon fill="#000000" stroke="#000000" points="1156.8435,-132.0799 1153.3431,-122.08 1149.8435,-132.0802 1156.8435,-132.0799"/>
</g>
<!-- MatProgressSpinnerModule  -->
<g id="node24" class="node">
<title>MatProgressSpinnerModule </title>
<polygon fill="#fb8072" stroke="#000000" points="1055.856,-122 878.144,-122 878.144,-86 1055.856,-86 1055.856,-122"/>
<text text-anchor="middle" x="967" y="-99.8" font-family="Times,serif" font-size="14.00" fill="#000000">MatProgressSpinnerModule </text>
</g>
<!-- ParserModule&#45;&gt;MatProgressSpinnerModule  -->
<g id="edge23" class="edge">
<title>ParserModule&#45;&gt;MatProgressSpinnerModule </title>
<path fill="none" stroke="#000000" stroke-dasharray="5,2" d="M1285.1841,-161.8129C1285.1841,-146.8176 1285.1841,-128 1285.1841,-128 1285.1841,-128 1019.8687,-128 1019.8687,-128 1019.8687,-128 1019.8687,-127.419 1019.8687,-127.419"/>
<polygon fill="#000000" stroke="#000000" points="1023.3689,-132.1902 1019.8687,-122.1903 1016.3689,-132.1903 1023.3689,-132.1902"/>
</g>
<!-- ParserHomeComponent  -->
<g id="node25" class="node">
<title>ParserHomeComponent </title>
<polygon fill="#fb8072" stroke="#000000" points="860.0218,-122 705.9782,-122 705.9782,-86 860.0218,-86 860.0218,-122"/>
<text text-anchor="middle" x="783" y="-99.8" font-family="Times,serif" font-size="14.00" fill="#000000">ParserHomeComponent </text>
</g>
<!-- ParserModule&#45;&gt;ParserHomeComponent  -->
<g id="edge24" class="edge">
<title>ParserModule&#45;&gt;ParserHomeComponent </title>
<path fill="none" stroke="#000000" stroke-dasharray="5,2" d="M1279.2761,-161.9489C1279.2761,-147.627 1279.2761,-130 1279.2761,-130 1279.2761,-130 852.0696,-130 852.0696,-130 852.0696,-130 852.0696,-129.2058 852.0696,-129.2058"/>
<polygon fill="#000000" stroke="#000000" points="855.5697,-132.0578 852.0696,-122.0579 848.5697,-132.0579 855.5697,-132.0578"/>
</g>
<!-- ParserDisplayComponent  -->
<g id="node26" class="node">
<title>ParserDisplayComponent </title>
<polygon fill="#fb8072" stroke="#000000" points="687.8574,-122 524.1426,-122 524.1426,-86 687.8574,-86 687.8574,-122"/>
<text text-anchor="middle" x="606" y="-99.8" font-family="Times,serif" font-size="14.00" fill="#000000">ParserDisplayComponent </text>
</g>
<!-- ParserModule&#45;&gt;ParserDisplayComponent  -->
<g id="edge25" class="edge">
<title>ParserModule&#45;&gt;ParserDisplayComponent </title>
<path fill="none" stroke="#000000" stroke-dasharray="5,2" d="M1273.3682,-161.963C1273.3682,-148.7087 1273.3682,-133 1273.3682,-133 1273.3682,-133 606,-133 606,-133 606,-133 606,-131.9201 606,-131.9201"/>
<polygon fill="#000000" stroke="#000000" points="609.5001,-132.2014 606,-122.2015 602.5001,-132.2015 609.5001,-132.2014"/>
</g>
<!-- ParserDataComponent  -->
<g id="node27" class="node">
<title>ParserDataComponent </title>
<polygon fill="#fb8072" stroke="#000000" points="506.2366,-122 359.7634,-122 359.7634,-86 506.2366,-86 506.2366,-122"/>
<text text-anchor="middle" x="433" y="-99.8" font-family="Times,serif" font-size="14.00" fill="#000000">ParserDataComponent </text>
</g>
<!-- ParserModule&#45;&gt;ParserDataComponent  -->
<g id="edge26" class="edge">
<title>ParserModule&#45;&gt;ParserDataComponent </title>
<path fill="none" stroke="#000000" stroke-dasharray="5,2" d="M1267.4602,-161.8495C1267.4602,-149.7292 1267.4602,-136 1267.4602,-136 1267.4602,-136 433,-136 433,-136 433,-136 433,-132.2434 433,-132.2434"/>
<polygon fill="#000000" stroke="#000000" points="436.5001,-132.2434 433,-122.2434 429.5001,-132.2434 436.5001,-132.2434"/>
</g>
<!-- ParserSearchComponent  -->
<g id="node28" class="node">
<title>ParserSearchComponent </title>
<polygon fill="#fb8072" stroke="#000000" points="341.897,-122 184.103,-122 184.103,-86 341.897,-86 341.897,-122"/>
<text text-anchor="middle" x="263" y="-99.8" font-family="Times,serif" font-size="14.00" fill="#000000">ParserSearchComponent </text>
</g>
<!-- ParserModule&#45;&gt;ParserSearchComponent  -->
<g id="edge27" class="edge">
<title>ParserModule&#45;&gt;ParserSearchComponent </title>
<path fill="none" stroke="#000000" stroke-dasharray="5,2" d="M1261.5522,-161.9445C1261.5522,-150.561 1261.5522,-138 1261.5522,-138 1261.5522,-138 263,-138 263,-138 263,-138 263,-132.1944 263,-132.1944"/>
<polygon fill="#000000" stroke="#000000" points="266.5001,-132.1944 263,-122.1944 259.5001,-132.1945 266.5001,-132.1944"/>
</g>
<!-- ParserTabComponent  -->
<g id="node29" class="node">
<title>ParserTabComponent </title>
<polygon fill="#fb8072" stroke="#000000" points="165.5778,-122 24.4222,-122 24.4222,-86 165.5778,-86 165.5778,-122"/>
<text text-anchor="middle" x="95" y="-99.8" font-family="Times,serif" font-size="14.00" fill="#000000">ParserTabComponent </text>
</g>
<!-- ParserModule&#45;&gt;ParserTabComponent  -->
<g id="edge28" class="edge">
<title>ParserModule&#45;&gt;ParserTabComponent </title>
<path fill="none" stroke="#000000" stroke-dasharray="5,2" d="M1255.6443,-161.8701C1255.6443,-151.6855 1255.6443,-141 1255.6443,-141 1255.6443,-141 95,-141 95,-141 95,-141 95,-132.0664 95,-132.0664"/>
<polygon fill="#000000" stroke="#000000" points="98.5001,-132.0664 95,-122.0664 91.5001,-132.0665 98.5001,-132.0664"/>
</g>
<!-- RouterModule.forRoot(args) -->
<g id="node13" class="node">
<title>RouterModule.forRoot(args)</title>
<polygon fill="#8dd3c7" stroke="#000000" points="2418.8419,-266 2415.8419,-270 2394.8419,-270 2391.8419,-266 2241.1581,-266 2241.1581,-230 2418.8419,-230 2418.8419,-266"/>
<text text-anchor="middle" x="2330" y="-243.8" font-family="Times,serif" font-size="14.00" fill="#000000">RouterModule.forRoot(args)</text>
</g>
<!-- RouterModule.forRoot(args)&#45;&gt;AppRoutingModule -->
<g id="edge12" class="edge">
<title>RouterModule.forRoot(args)&#45;&gt;AppRoutingModule</title>
<path fill="none" stroke="#000000" d="M2281.1289,-229.7079C2281.1289,-207.7943 2281.1289,-174 2281.1289,-174 2281.1289,-174 2085.3594,-174 2085.3594,-174"/>
<polygon fill="#000000" stroke="#000000" points="2085.3594,-170.5001 2075.3594,-174 2085.3594,-177.5001 2085.3594,-170.5001"/>
</g>
<!-- ParserDataComponent -->
<g id="node15" class="node">
<title>ParserDataComponent</title>
<polygon fill="#ffffb3" stroke="#000000" points="2481.2366,-122 2338.7634,-122 2338.7634,-86 2481.2366,-86 2481.2366,-122"/>
<text text-anchor="middle" x="2410" y="-99.8" font-family="Times,serif" font-size="14.00" fill="#000000">ParserDataComponent</text>
</g>
<!-- ParserDataComponent&#45;&gt;ParserModule -->
<g id="edge14" class="edge">
<title>ParserDataComponent&#45;&gt;ParserModule</title>
<path fill="none" stroke="#000000" d="M2378.6513,-122.027C2378.6513,-138.3976 2378.6513,-160 2378.6513,-160 2378.6513,-160 1338.3557,-160 1338.3557,-160 1338.3557,-160 1338.3557,-160.1846 1338.3557,-160.1846"/>
<polygon fill="#000000" stroke="#000000" points="1334.8563,-151.8455 1338.3557,-161.8457 1341.8563,-151.8459 1334.8563,-151.8455"/>
</g>
<!-- ParserDisplayComponent -->
<g id="node16" class="node">
<title>ParserDisplayComponent</title>
<polygon fill="#ffffb3" stroke="#000000" points="2320.8571,-122 2161.1429,-122 2161.1429,-86 2320.8571,-86 2320.8571,-122"/>
<text text-anchor="middle" x="2241" y="-99.8" font-family="Times,serif" font-size="14.00" fill="#000000">ParserDisplayComponent</text>
</g>
<!-- ParserDisplayComponent&#45;&gt;ParserModule -->
<g id="edge15" class="edge">
<title>ParserDisplayComponent&#45;&gt;ParserModule</title>
<path fill="none" stroke="#000000" d="M2188.8238,-122.2396C2188.8238,-137.5706 2188.8238,-157 2188.8238,-157 2188.8238,-157 1332.4478,-157 1332.4478,-157 1332.4478,-157 1332.4478,-157.4878 1332.4478,-157.4878"/>
<polygon fill="#000000" stroke="#000000" points="1328.948,-151.8776 1332.4478,-161.8777 1335.948,-151.8778 1328.948,-151.8776"/>
</g>
<!-- ParserTabComponent -->
<g id="node17" class="node">
<title>ParserTabComponent</title>
<polygon fill="#ffffb3" stroke="#000000" points="2143.0772,-122 2004.9228,-122 2004.9228,-86 2143.0772,-86 2143.0772,-122"/>
<text text-anchor="middle" x="2074" y="-99.8" font-family="Times,serif" font-size="14.00" fill="#000000">ParserTabComponent</text>
</g>
<!-- ParserTabComponent&#45;&gt;ParserModule -->
<g id="edge16" class="edge">
<title>ParserTabComponent&#45;&gt;ParserModule</title>
<path fill="none" stroke="#000000" d="M2040.1743,-122.0511C2040.1743,-136.373 2040.1743,-154 2040.1743,-154 2040.1743,-154 1326.5398,-154 1326.5398,-154 1326.5398,-154 1326.5398,-154.7942 1326.5398,-154.7942"/>
<polygon fill="#000000" stroke="#000000" points="1323.04,-151.9421 1326.5398,-161.9421 1330.04,-151.9422 1323.04,-151.9421"/>
</g>
<!-- ParserHomeComponent -->
<g id="node18" class="node">
<title>ParserHomeComponent</title>
<polygon fill="#ffffb3" stroke="#000000" points="1987.0226,-122 1836.9774,-122 1836.9774,-86 1987.0226,-86 1987.0226,-122"/>
<text text-anchor="middle" x="1912" y="-99.8" font-family="Times,serif" font-size="14.00" fill="#000000">ParserHomeComponent</text>
</g>
<!-- ParserHomeComponent&#45;&gt;ParserModule -->
<g id="edge17" class="edge">
<title>ParserHomeComponent&#45;&gt;ParserModule</title>
<path fill="none" stroke="#000000" d="M1882.445,-122.1467C1882.445,-135.7395 1882.445,-152 1882.445,-152 1882.445,-152 1320.6319,-152 1320.6319,-152 1320.6319,-152 1320.6319,-152.9793 1320.6319,-152.9793"/>
<polygon fill="#000000" stroke="#000000" points="1317.132,-151.793 1320.6319,-161.793 1324.132,-151.7931 1317.132,-151.793"/>
</g>
<!-- ParserSearchComponent -->
<g id="node19" class="node">
<title>ParserSearchComponent</title>
<polygon fill="#ffffb3" stroke="#000000" points="1819.3975,-122 1664.6025,-122 1664.6025,-86 1819.3975,-86 1819.3975,-122"/>
<text text-anchor="middle" x="1742" y="-99.8" font-family="Times,serif" font-size="14.00" fill="#000000">ParserSearchComponent</text>
</g>
<!-- ParserSearchComponent&#45;&gt;ParserModule -->
<g id="edge18" class="edge">
<title>ParserSearchComponent&#45;&gt;ParserModule</title>
<path fill="none" stroke="#000000" d="M1701.1441,-122.0439C1701.1441,-134.5633 1701.1441,-149 1701.1441,-149 1701.1441,-149 1314.7239,-149 1314.7239,-149 1314.7239,-149 1314.7239,-151.9672 1314.7239,-151.9672"/>
<polygon fill="#000000" stroke="#000000" points="1311.224,-151.9671 1314.7239,-161.9672 1318.224,-151.9672 1311.224,-151.9671"/>
</g>
<!-- CommonModule -->
<g id="node20" class="node">
<title>CommonModule</title>
<polygon fill="#8dd3c7" stroke="#000000" points="1640.6681,-122 1637.6681,-126 1616.6681,-126 1613.6681,-122 1529.3319,-122 1529.3319,-86 1640.6681,-86 1640.6681,-122"/>
<text text-anchor="middle" x="1585" y="-99.8" font-family="Times,serif" font-size="14.00" fill="#000000">CommonModule</text>
</g>
<!-- CommonModule&#45;&gt;ParserModule -->
<g id="edge19" class="edge">
<title>CommonModule&#45;&gt;ParserModule</title>
<path fill="none" stroke="#000000" d="M1570.7483,-122.0555C1570.7483,-133.439 1570.7483,-146 1570.7483,-146 1570.7483,-146 1308.8159,-146 1308.8159,-146 1308.8159,-146 1308.8159,-151.8056 1308.8159,-151.8056"/>
<polygon fill="#000000" stroke="#000000" points="1305.316,-151.8055 1308.8159,-161.8056 1312.316,-151.8056 1305.316,-151.8055"/>
</g>
<!-- MatTabsModule -->
<g id="node21" class="node">
<title>MatTabsModule</title>
<polygon fill="#8dd3c7" stroke="#000000" points="1511.8118,-122 1508.8118,-126 1487.8118,-126 1484.8118,-122 1402.1882,-122 1402.1882,-86 1511.8118,-86 1511.8118,-122"/>
<text text-anchor="middle" x="1457" y="-99.8" font-family="Times,serif" font-size="14.00" fill="#000000">MatTabsModule</text>
</g>
<!-- MatTabsModule&#45;&gt;ParserModule -->
<g id="edge20" class="edge">
<title>MatTabsModule&#45;&gt;ParserModule</title>
<path fill="none" stroke="#000000" d="M1439.1652,-122.1274C1439.1652,-132.7109 1439.1652,-144 1439.1652,-144 1439.1652,-144 1302.908,-144 1302.908,-144 1302.908,-144 1302.908,-151.5782 1302.908,-151.5782"/>
<polygon fill="#000000" stroke="#000000" points="1299.4081,-151.5781 1302.908,-161.5782 1306.4081,-151.5782 1299.4081,-151.5781"/>
</g>
<!-- MatProgressSpinnerModule -->
<g id="node22" class="node">
<title>MatProgressSpinnerModule</title>
<polygon fill="#8dd3c7" stroke="#000000" points="1383.8557,-122 1380.8557,-126 1359.8557,-126 1356.8557,-122 1210.1443,-122 1210.1443,-86 1383.8557,-86 1383.8557,-122"/>
<text text-anchor="middle" x="1297" y="-99.8" font-family="Times,serif" font-size="14.00" fill="#000000">MatProgressSpinnerModule</text>
</g>
<!-- MatProgressSpinnerModule&#45;&gt;ParserModule -->
<g id="edge21" class="edge">
<title>MatProgressSpinnerModule&#45;&gt;ParserModule</title>
<path fill="none" stroke="#000000" d="M1297,-122.0109C1297,-122.0109 1297,-151.855 1297,-151.855"/>
<polygon fill="#000000" stroke="#000000" points="1293.5001,-151.8549 1297,-161.855 1300.5001,-151.855 1293.5001,-151.8549"/>
</g>
</g>
</svg>
